<svg width="379" height="284" fill="none" xmlns="http://www.w3.org/2000/svg"><path opacity=".45" d="M191.878 249.854c92.994 0 168.38-6.722 168.38-15.014 0-8.292-75.386-15.015-168.38-15.015s-168.38 6.723-168.38 15.015c0 8.292 75.386 15.014 168.38 15.014z" fill="#525369"/><path d="M94.58 192.429H38.174v40.849h56.404v-40.849z" fill="#2D3050"/><path opacity=".45" d="M100.539 158.33H53.657v33.948h46.882V158.33z" fill="#525369"/><path d="M325.836 163.66h-8.604v-1.894h8.604a2.279 2.279 0 002.293-2.281v-6.125a2.29 2.29 0 00-2.293-2.291h-8.604v-1.893h8.604a4.185 4.185 0 014.188 4.184v6.153a4.185 4.185 0 01-4.188 4.147z" fill="#3CD3C1"/><path d="M325.836 163.66h-8.604v-1.894h8.604a2.279 2.279 0 002.293-2.281v-6.125a2.29 2.29 0 00-2.293-2.291h-8.604v-1.893h8.604a4.185 4.185 0 014.188 4.184v6.153a4.185 4.185 0 01-4.188 4.147z" fill="#F56161"/><path d="M328.65 208.664h-30.083v3.863h30.083v-3.863z" fill="#404261"/><path d="M90.704 208.134l-3.676 25.153h8.982l6.131-25.153H90.704z" fill="#272A48"/><path d="M98.426 209.213l-3.676 25.153h8.982l6.131-25.153H98.426zM246.416 208.267l3.677 25.153h-8.983l-6.13-25.153h11.436z" fill="#3CD3C1"/><path d="M72.844 186.91l2.435 12.884a18.034 18.034 0 006.217 10.542 18.062 18.062 0 0011.52 4.15H256.64a24.05 24.05 0 0014.705-5.023 24.021 24.021 0 008.556-12.963l2.511-9.618-209.568.028z" fill="#3CD3C1"/><path d="M80.594 176.544l-6.045 4.449a5.066 5.066 0 00-1.807 5.629 5.062 5.062 0 001.816 2.52 5.077 5.077 0 002.947.987l198.312 2.139a6.64 6.64 0 006.181-3.985 6.622 6.622 0 00-1.301-7.233l-4.292-4.506H80.595z" fill="#87E7DB"/><path d="M80.594 176.544s-20.589-65.699 25.526-69.779c37.729-3.342 123.393-1.212 153.192-.331 9.882.293 18.865 6.021 22.74 14.891 4.662 10.669 6.329 28.116-5.59 55.219H80.594z" fill="#3CD3C1"/><path d="M126.965 217.809s.578 3.427-1.895 5.084c-2.473 1.656-1.715 4.553.947 3.919 2.663-.634 7.003-6.958 7.003-6.958l-2.256-3.626-3.799 1.581zM170.095 91.59s-40.07-4.241-38.554 16.926c1.516 21.168 23.972 66.267 23.972 66.267h49.194s44.182-58.087 26.019-76.49c-18.164-18.404-29.145-1.733-60.631-6.703z" fill="#F231A5"/><path d="M170.55 93.36s-5.173 14.087 3.676 16.936c8.85 2.85 13.749-8.331 11.295-14.2-2.455-5.87-14.971-2.736-14.971-2.736z" fill="#FFC9C9"/><path opacity=".08" d="M155.826 119.592s-4.88 40.111 20.068 44.068c24.948 3.957 36.469.255 36.469.255l-7.656 10.906-49.895-1.43s-15.103-32.991-15.89-36.92c-.786-3.928 16.904-16.879 16.904-16.879z" fill="#000"/><path opacity=".08" d="M170.55 93.36s-5.173 14.087 3.676 16.936c8.85 2.85 13.749-8.331 11.295-14.2-2.455-5.87-14.971-2.736-14.971-2.736z" fill="#FFC9C9"/><path d="M171.498 91.902c.279 1.785.459 3.583.54 5.387.075 2.48.871 6.153 4.784 6.882 6.027 1.117 7.58-8.416 7.58-8.416s3.79-8.936-2.728-10.157c-5.827-1.108-11.38-1.894-10.176 6.304z" fill="#FFC9C9"/><path d="M184.08 96.144s.341-2.897 2.843-2.774c2.501.123 1.563 5.528-2.843 2.773zM172.947 94.525s.891-2.774-1.459-3.711c-2.35-.938-3.686 4.402 1.459 3.71zM157.114 105.913a17.457 17.457 0 00-10.716-9.128 17.491 17.491 0 00-13.975 1.735c-12.034 7.1-26.767 22.36-25.801 54.329 1.412 46.159 66.496 14.276 66.496 14.276l-2.426-6.921s-48.199 15.081-39.188-11.426c7.542-22.209 34.536-23.913 25.61-42.865z" fill="#FFC9C9"/><path d="M157.086 173.401l47.621 1.42s33.57 3.114 33.978 15.147c.322 9.514-40.222 3.976-57.182 1.249a71.903 71.903 0 00-25.459.35c-13.265 2.632-26.758-1.391-23.148 25.627l-7.087 1.732s-18.675-45.989 31.277-45.525z" fill="#06092B"/><path d="M194.351 157.204h-17.055a2.765 2.765 0 00-2.767 2.764v3.578a2.766 2.766 0 002.767 2.765h17.055a2.766 2.766 0 002.767-2.765v-3.578a2.765 2.765 0 00-2.767-2.764z" fill="#3CD3C1"/><path d="M170.692 160.204s2.132-7.081 4.51-7.147c2.378-.066 5.913-.132 5.335 2.518-.578 2.651-4.994 1.307-4.51 3.124.483 1.818 5.372 1.089 7.816 2.925 2.445 1.837 2.843 6.797-10.725 5.501l-2.426-6.921zM202.301 104.37a17.455 17.455 0 018.323-11.34 17.491 17.491 0 0113.99-1.535c13.351 4.147 31.211 15.601 37.635 46.936 9.276 45.222-61.379 29.195-61.379 29.195l.758-7.299s50.379 3.588 35.503-20.135c-12.488-19.871-39.104-15.317-34.83-35.822z" fill="#FFC9C9"/><path d="M201.6 160.327s-3.705-6.399-6.036-5.916c-2.331.483-5.78 1.23-4.614 3.682 1.165 2.452 5.164.123 5.116 1.998-.047 1.874-4.984 2.3-6.945 4.648-1.961 2.348-1.175 7.261 11.721 2.84l.758-7.252z" fill="#FFC9C9"/><path d="M181.74 186.91s-7.959 7.337-5.306 10.413c2.653 3.077 7.646-5.68 7.646-5.68l-2.34-4.733z" fill="#F231A5"/><path d="M297.316 174.821l-3.79 58.466h3.79l8.054-58.466h-8.054zM328.584 174.821l3.79 58.466h-3.79l-8.054-58.466h8.054z" fill="#2D3050"/><path d="M332.374 167.342h-38.848v9.202h38.848v-9.202z" fill="#272A4D"/><path d="M322.122 144.84H305.37v22.502h16.752V144.84z" fill="#F56161"/><path opacity=".08" d="M313.954 161.331c2.768 0 5.012-2.509 5.012-5.604 0-3.096-2.244-5.605-5.012-5.605-2.768 0-5.012 2.509-5.012 5.605 0 3.095 2.244 5.604 5.012 5.604z" fill="#000"/><path d="M307.938 144.84s-2.369-7.886 3.941-8.681c6.31-.795 15.009.795 11.768-8.672-3.24-9.466-7.504-7.421-2.767-18.147 4.738-10.726 17.216 8.359 21.793-1.732 4.576-10.092 10.896-6.627 17.216-1.657s7.58 20.429-4.899 22.796c-12.478 2.366-14.999 5.064-17.528 12.003-2.53 6.939-15.312 4.09-15.312 4.09h-14.212z" fill="#D1D1D1" fill-opacity=".07"/><path d="M169.081 88.116s-3.373-8.01 3.79-10.414c0 0-2.842 1.894-1.43 10.329l-2.36.085zM187.908 91.609s3.79-10.49-5.211-14.143c0 0 6.017 4.657 2.842 13.821l2.369.322z" fill="#3CD3C1"/><path opacity=".08" d="M169.081 88.116s-3.373-8.01 3.79-10.414c0 0-2.842 1.894-1.43 10.329l-2.36.085zM187.908 91.609s3.79-10.49-5.211-14.143c0 0 6.017 4.657 2.842 13.821l2.369.322z" fill="#000"/><path d="M171.497 88.873s4.918.947 8.149-2.689c0 0 3.373 5.747 5.751 5.908 0 0 1.677-3.939 1.602-6.419-.076-2.48 2.795-2.764 1.734-5.803-1.062-3.039-3.629-3.787-6.017-2.404 0 0 1.241-2.282-1.052-2.755-2.293-.474-8.812 2.916-8.812 2.916s-3.591 2.49-1.355 11.246z" fill="#2C2F54"/><path d="M185.511 97.743s-1.421 5.245-6.396 3.891v-1.287s3.535 1.439 5.164-3.427l1.232.823zM167.016 88.807c-.73 2.584-.872 6.626 4.955 7.26l-.549-8.027a1.466 1.466 0 00-1.469-1.373 3.045 3.045 0 00-2.937 2.14z" fill="#3CD3C1"/><path d="M189.841 91.625c.313 2.66-.17 6.627-6.026 6.4l1.8-7.896a1.478 1.478 0 011.658-1.126 3.05 3.05 0 012.568 2.622zM178.357 102.363a1.487 1.487 0 10.003-2.973 1.487 1.487 0 00-.003 2.973z" fill="#3CD3C1"/><path opacity=".46" d="M178.357 102.363a1.487 1.487 0 10.003-2.973 1.487 1.487 0 00-.003 2.973z" fill="#fff"/><path d="M206.719 159.708l-4.743-.357-.74 9.837 4.743.356.74-9.836z" fill="#F231A5"/><path opacity=".46" d="M206.719 159.708l-4.743-.357-.74 9.837 4.743.356.74-9.836z" fill="#3CD3C1"/><path d="M171.645 100.278c.004-1.339-.062-2.558-.148-4.191.703 4.277 1.852 6.082 5.212 8.046a23.241 23.241 0 01-1.811-.232l-.03-.004c-1.779-.278-3.229-1.819-3.223-3.619z" fill="#000" fill-opacity=".04"/></svg>
